<?xml version='1.0' encoding='utf-8'?>
<svg xmlns="http://www.w3.org/2000/svg" version="1.0" width="768" height="464" id="svg2">

	<defs id="defsKatakana">
		<marker refX="0" refY="0" orient="auto" style="overflow:visible" id="Arrow2Mend">
			<path d="M 8.7185878,4.0337352 L -2.2072895,0.016013256 L 8.7185884,-4.0017078 C 6.97309,-1.6296469 6.9831476,1.6157441 8.7185878,4.0337352 z " transform="scale(-0.6,-0.6)" class="arrow" id="path3344" style="stroke:blue" />
		</marker>
		<marker refX="0" refY="0" orient="auto" style="overflow:visible" id="Arrow2Send">
			<path d="M 8.7185878,4.0337352 L -2.2072895,0.016013256 L 8.7185884,-4.0017078 C 6.97309,-1.6296469 6.9831476,1.6157441 8.7185878,4.0337352 z " transform="matrix(-0.3,0,0,-0.3,0.69,0)" class="arrow" id="path3338" style="stroke:blue" />
		</marker>
		<marker refX="0" refY="0" orient="auto" style="overflow:visible" id="Arrow1Send">
			<path d="M 0,0 L 5,-5 L -12.5,0 L 5,5 L 0,0 z " transform="matrix(-0.2,0,0,-0.2,-1.2,0)" class="arrow" id="path3356" style="stroke:blue" />
		</marker>
		<marker refX="0" refY="0" orient="auto" style="overflow:visible" id="Arrow1Mend">
			<path d="M 0,0 L 5,-5 L -12.5,0 L 5,5 L 0,0 z " transform="matrix(-0.4,0,0,-0.4,-4,0)" class="arrow" id="path3362" style="stroke:blue" />
		</marker>
		<marker refX="0" refY="0" orient="auto" style="overflow:visible" id="Arrow1Lend">
			<path d="M 0,0 L 5,-5 L -12.5,0 L 5,5 L 0,0 z " transform="matrix(-0.8,0,0,-0.8,-10,0)" class="arrow" id="path3368" style="stroke:blue" />
		</marker>
	</defs>
	<style type="text/css">
		path.stroke

		/* arrow lines */
			{
			fill: none;
			fill-opacity: 0.75;
			fill-rule: evenodd;
			stroke: blue;
			stroke-width: 1px;
			stroke-linecap: butt;
			stroke-linejoin: miter;
			stroke-opacity: 1;
			marker-end: url(#Arrow1Mend);
		}

		path.arrow

		/* heads */
			{
			font-size: 12px;
			fill-rule: evenodd;
			fill: blue;
			stroke: blue;
			stroke-width: 1pt;
			/*0.625*/
			stroke-linejoin: round;
			marker-start: none;
		}

		text.number {
			font-size: 8px;
			fill: blue;
		}

		text.label {
			font-size: 22px;
		}

		text.cell {
			font-style: italic;
			text-transform: lowercase;
			fill: gray;
			/*			display: none;*/
		}

		/*		path.old
		{
			fill: gray;
		}
		*/
		path.rule {
			fill: none;
			fill-opacity: 0.75;
			fill-rule: evenodd;
			stroke: black;
			stroke-width: 1px;
			stroke-linecap: butt;
			stroke-linejoin: miter;
			stroke-opacity: 0.1;
		}

		path.rule[id*="V"] {
			stroke-opacity: 0;
		}

		path#ruleH1,
		path#ruleV12 {
			stroke-opacity: 0.8;
		}

		defs marker {
			overflow: visible;
		}
	</style>
	<rect width="100%" height="100%" fill="white"/>
	<g id="gTable">

		<path d="M 16.5,47.5 L 16.5,447.5" class="rule" id="ruleV01" />
		<path d="M 80.5,47 L 80.5,447" class="rule" id="ruleV02" />
		<path d="M 144.5,47 L 144.5,447" class="rule" id="ruleV03" />
		<path d="M 208.5,47 L 208.5,447" class="rule" id="ruleV04" />
		<path d="M 272.5,47 L 272.5,447" class="rule" id="ruleV05" />
		<path d="M 336.5,47 L 336.5,447" class="rule" id="ruleV06" />
		<path d="M 400.5,47 L 400.5,447" class="rule" id="ruleV07" />
		<path d="M 464.5,47 L 464.5,447" class="rule" id="ruleV08" />
		<path d="M 528.5,47 L 528.5,447" class="rule" id="ruleV09" />
		<path d="M 592.5,47 L 592.5,447" class="rule" id="ruleV10" />
		<path d="M 656.5,47 L 656.5,447" class="rule" id="ruleV11" />
		<path d="M 33,47 L 33,447" class="rule" id="ruleV12" />

		<path d="M 33,47.5 L 80.5,47.5 L 144.5,47.5 L 208.5,47.5 L 272.5,47.5 L 336.5,47.5 L 400.5,47.5 L 464.5,47.5 L 528.5,47.5 L 592.5,47.5 L 656.5,47.5 L 720.5,47.5" class="rule" id="ruleH1" />
		<path d="M 33,127.5 L 720.5,127.5" class="rule" id="ruleH2" />
		<path d="M 33,207.5 L 720.5,207.5" class="rule" id="ruleH3" />
		<path d="M 33,287.5 L 720.5,287.5" class="rule" id="ruleH4" />
		<path d="M 33,367.5 L 720.5,367.5" class="rule" id="ruleH5" />
		<path d="M 33,447.5 L 720.5,447.5" class="rule" id="ruleH6" />
	</g>

	<g id="gN">
		<path id="path2065" d="M688.9005,62.54L686.5568,66.3872C689.8693,67.856 693.1193,70.1685 696.338,73.2935C697.5568,71.6997 698.6193,70.3873 699.5255,69.356C696.2443,66.8872 692.713,64.5435 688.9005,62.54z M717.9943,68.981C716.6192,73.2935 714.4317,77.106 711.4005,80.4497C708.3693,83.7622 704.713,86.4498 700.4318,88.5122C696.1505,90.5747 693.0255,91.6997 691.088,91.8872C689.1818,92.0435 688.0255,92.0747 687.6193,91.981C687.088,92.0435 686.8693,92.356 686.963,92.8872L689.1193,98.1372C689.3693,98.481 689.6505,98.4185 689.963,97.981L690.588,97.1997C694.7443,96.0747 699.1505,94.2622 703.8068,91.7935C708.463,89.2935 712.3692,86.1685 715.5568,82.3872C718.7442,78.606 721.2442,74.7935 723.0255,70.9497C721.5567,70.5435 719.8692,69.8873 717.9943,68.981z " />
		<path id="path2221" d="M690.9467,58.0L703.6066,65.9492" class="stroke" />
		<text x="693.1016" y="57.0055" class="number">1</text>
		<path id="path3144" d="M691.2411,102.4569C697.6604,101.3506 711.2275,92.8927 715.9813,90.121" class="stroke" />
		<text x="683.8374" y="105.3041" class="number">2</text>
		<text x="695.0" y="122.5" id="cellN" class="label cell">N</text>
	</g>

	<g id="gWA">
		<path id="path2075" d="M624.3582,81.1831L624.3582,64.9644L653.3738,64.9644L653.4676,64.8238C653.5926,64.6675 653.7332,64.6675 653.8895,64.8238C654.7332,65.5425 655.7488,66.3863 656.9363,67.355C657.3426,67.8238 657.3269,68.2925 656.8895,68.7613L656.3738,69.2769C656.2176,72.3082 655.8894,75.1363 655.3895,77.7613C654.9207,80.3863 653.6551,83.1831 651.5926,86.1519C649.5613,89.0894 647.0145,91.4956 643.952,93.3706C640.8895,95.2144 637.0301,96.7613 632.3738,98.0113C631.9676,96.5738 631.3582,95.0581 630.5457,93.4644L630.5457,93.1363C634.2957,92.6675 637.5457,91.7613 640.2957,90.4175C643.077,89.0738 645.4363,87.0894 647.3738,84.4644C649.3426,81.8081 650.5457,79.2769 650.9832,76.8706C651.4519,74.4332 651.7019,71.7925 651.7332,68.9488L628.8113,68.9488L628.8113,81.1831L624.3582,81.1831" />
		<path id="path4065" d="M619.769,65.0364L619.4746,78.5795" class="stroke" />
		<text x="611.9138" y="68.3109" class="number">1</text>
		<path id="path4986" d="M627.1294,61.3562C628.0127,61.3562 643.4695,61.6506 643.4695,61.6506" class="stroke" />
		<text x="627.4163" y="58.5738" class="number">2</text>
		<text x="623.0" y="122.5" id="cellWA" class="label cell">WA</text>
	</g>
	<g id="gRA">
		<path id="path2093" d="M565.8035,58.5263L565.8035,62.6201L588.2097,62.6201L588.2097,58.5263L565.8035,58.5263z M591.2722,68.3701C591.2019,68.3701 591.1472,68.3857 591.0847,68.4638L590.9285,68.6201L560.5222,68.6201L560.5222,72.5888L588.9285,72.5888C588.8347,74.5576 588.3034,76.6201 587.3347,78.7451C586.3659,80.8388 584.9909,82.7451 583.241,84.4951C581.5222,86.2138 579.2409,87.7451 576.366,89.0576C573.491,90.3388 569.4909,91.1514 564.3972,91.5263L564.3972,91.8701C565.0847,93.5576 565.5222,95.1826 565.7097,96.7451C571.9597,95.3701 576.5847,93.9013 579.5847,92.3388C582.5847,90.7451 585.1472,88.7764 587.241,86.4326C589.3347,84.0888 590.8659,81.8076 591.866,79.5888C592.8659,77.3388 593.4909,75.1826 593.741,73.1201L594.5535,72.4013C595.0534,71.9951 595.0534,71.5263 594.5847,70.9951C593.3347,69.9326 592.3034,69.0888 591.491,68.4638C591.4128,68.3857 591.3425,68.3701 591.2722,68.3701z " />
		<path id="path5907" d="M566.0061,54.919L582.4526,54.919" class="stroke" />
		<text x="560.0204" y="56.2398" class="number">1</text>
		<path id="path6828" d="M555.5101,65.5076L570.5254,65.5076" class="stroke" />
		<text x="550.3146" y="67.5892" class="number">2</text>
		<path id="path7749" d="M588.4848,65.5076C588.4848,65.5076 595.3668,64.1827 597.6117,66.8325C599.8566,69.4822 597.3451,75.5316 596.4235,78.2925" class="stroke" />
		<text x="561.0" y="122.5" id="cellRA" class="label cell">RA</text>
	</g>
	<g id="gYA">
		<path id="path2099" d="M506.127,60.8143L510.9551,60.2987C511.3926,60.33 511.5332,60.5488 511.377,60.955L511.0958,61.9393C511.627,64.9394 512.1895,67.9394 512.7832,70.9393C518.5332,69.9706 524.2676,68.8925 529.9864,67.705L530.127,67.5175C530.252,67.3613 530.3926,67.3613 530.5489,67.5175C532.0801,68.3613 533.6582,69.3456 535.2832,70.4706C535.9082,71.0331 535.8457,71.4706 535.0957,71.7831L532.8926,72.8612L532.8457,72.8612C528.8457,78.5175 525.377,82.7206 522.4395,85.4706C521.5957,84.2831 520.4707,83.205 519.0645,82.2362L518.9707,81.6268C521.7832,79.7831 524.5957,76.6581 527.4082,72.2518C522.8457,72.9706 518.2364,73.7675 513.5801,74.6425C515.2051,82.33 517.0801,90.0175 519.2051,97.705L519.1582,98.1737C517.8145,98.5175 516.1582,99.0487 514.1895,99.7675C512.127,89.6112 510.4395,81.5175 509.127,75.4862C504.9082,76.2987 500.6583,77.1894 496.377,78.1581C495.877,76.4706 495.1583,75.1581 494.2208,74.2206L494.2676,73.7518C498.9551,73.1269 503.6426,72.4394 508.3301,71.6893C506.9239,65.3456 506.0801,62.0175 505.7989,61.705C505.5489,61.1425 505.6582,60.8456 506.127,60.8143" />
		<path id="path8666" d="M489.7792,71.1015L503.6168,68.7462" class="stroke" />
		<text x="487.5179" y="68.3109" class="number">1</text>
		<path id="path9589" d="M514.3629,54.9086L516.2767,65.802" class="stroke" />
		<text x="517.4978" y="57.4027" class="number">2</text>
		<path class="stroke" d="M528.9366,65.2132C528.9366,65.2132 535.4365,64.2665 538.0635,66.5381C543.5352,71.2697 536.6519,77.9436 534.7935,80.2881" id="path10510" />
		<text x="499.0" y="122.5" id="cellYA" class="label cell">YA</text>
	</g>
	<g id="gMA">
		<path id="path2115" d="M429.4405,65.0977L464.503,63.7383L464.7374,63.5039C464.8623,63.3477 465.003,63.3477 465.1593,63.5039C466.128,64.5664 467.128,65.6758 468.1593,66.832C468.5342,67.3946 468.4717,67.8321 467.9718,68.1445L466.7061,68.6133C464.6436,72.2071 462.4249,75.1914 460.0499,77.5664C457.6749,79.9414 455.0967,82.2695 452.3155,84.5508C454.5342,86.4258 456.628,88.3008 458.5968,90.1758L458.5968,90.6445C457.503,91.582 456.2217,92.9102 454.753,94.6289C452.253,91.4414 449.6749,88.6445 447.0186,86.2383C444.3624,83.832 441.4874,81.7695 438.3936,80.0508L440.9718,76.3945C443.8155,78.082 446.4561,79.8633 448.8936,81.7383C451.0186,80.3008 453.1749,78.5039 455.3624,76.3477C457.5811,74.1914 459.628,71.2852 461.503,67.6289C451.4717,67.9414 441.1749,68.6758 430.6124,69.832C430.3311,68.0821 429.8624,66.6133 429.2061,65.4258L429.4405,65.0977" />
		<path id="path10512" d="M442.6191,61.9972C442.6191,61.9972 463.2813,57.6774 469.8912,60.9563C476.501,64.2352 470.5915,72.3097 469.0584,75.1128" class="stroke" />
		<text x="437.4371" y="59.8147" class="number">1</text>
		<path id="path11433" d="M435.9572,83.6483L449.0728,95.723" class="stroke" />
		<text x="432.3836" y="93.0021" class="number">2</text>
		<text x="433.0" y="122.5" id="cellMA" class="label cell">MA</text>
	</g>
	<g id="gHA">
		<path id="path2131" d="M393.7348,66.5489L390.2035,69.2677C392.4848,71.6427 394.766,74.8302 397.0473,78.8302C399.3285,82.7989 401.266,87.4239 402.8598,92.7052C405.1723,91.4552 406.9535,90.6114 408.1723,90.2052L408.1723,89.9864C405.9848,85.1739 403.6097,80.7677 401.0473,76.7989C398.516,72.7989 396.0785,69.3927 393.7348,66.5489z M377.1098,68.3927C376.8051,68.3868 376.6332,68.588 376.6098,68.9864C376.8598,69.3927 376.641,70.6427 375.9223,72.7364C375.2348,74.8302 373.7973,77.6427 371.641,81.2052C369.4848,84.7677 367.1723,87.6427 364.6723,89.8302L364.6723,90.4552C366.1098,91.4239 367.266,92.5489 368.141,93.8614C371.4223,89.7052 374.0473,85.8927 376.0473,82.4239C378.0785,78.9552 379.8598,75.1739 381.391,71.0489L382.0473,70.4239C382.516,70.0802 382.4848,69.7989 381.9535,69.5802L377.4535,68.4552C377.3207,68.4083 377.2113,68.3946 377.1098,68.3927z " />
		<path id="path12355" d="M372.0778,67.41C372.5722,71.912 367.732,79.2505 365.3118,82.9197" class="stroke" />
		<path id="path13272" d="M399.9744,66.5773L409.7591,82.3992" class="stroke" />
		<text x="363.5649" y="69.5993" class="number">1</text>
		<text x="403.6873" y="68.8528" class="number">2</text>
		<text x="369.0" y="122.5" id="cellHA" class="label cell">HA</text>
	</g>
	<g id="gNA">
		<path id="path2145" d="M310.4962,92.8105C313.4962,91.7168 315.8712,90.3261 317.6212,88.6386C319.3712,86.9511 320.5743,84.8886 321.2306,82.4511C321.8868,79.9824 322.2618,77.4355 322.3556,74.8105L303.7931,74.8105L303.7931,70.6386L322.3556,70.6386C322.3243,68.2324 322.1993,65.373 321.9806,62.0605C321.9806,61.4043 321.8868,60.8418 321.6994,60.373C321.5118,59.9668 321.6368,59.7168 322.0744,59.623L326.8556,59.8105C327.3243,59.9355 327.4181,60.2012 327.1369,60.6074L326.6212,61.498C326.7775,65.0918 326.8712,68.1387 326.9025,70.6386L342.9806,70.6386L342.9806,74.8105L326.8556,74.8105C326.7618,77.498 326.3556,80.2637 325.6369,83.1074C324.9493,85.9199 323.6681,88.4668 321.7931,90.748C319.9493,93.0293 317.09,95.248 313.215,97.4043C312.4962,95.7793 311.59,94.4511 310.4962,93.4199L310.4962,92.8105" />
		<path id="path14197" d="M301.5365,66.9936L317.1503,67.2018" class="stroke" />
		<text x="300.1019" y="64.3947" class="number">1</text>
		<path id="path15118" d="M331.454,56.0313L331.0376,67.4814" class="stroke" />
		<text x="334.3981" y="59.4641" class="number">2</text>
		<text x="305.0" y="122.5" id="cellNA" class="label cell">NA</text>
	</g>
	<g id="gTA">
		<path id="path2161" d="M251.4898,58.37C251.521,57.8388 251.8023,57.6669 252.3335,57.8544L256.6929,58.6982C257.1616,58.8857 257.1929,59.1669 256.7867,59.5419L256.0367,60.1982C255.5679,61.5107 255.0835,62.7607 254.5835,63.9482L268.0367,63.9482L268.1773,63.7607C268.3022,63.6044 268.4429,63.6044 268.5992,63.7607C269.5679,64.4482 270.6616,65.2607 271.8804,66.1982C272.3804,66.5732 272.3647,66.9951 271.8335,67.4638L271.0835,67.8857C270.9272,70.0107 270.4741,72.2607 269.7242,74.6357C269.0054,77.0107 267.771,79.4794 266.021,82.0419C266.6148,82.5107 267.2085,82.995 267.8023,83.495C266.646,84.7763 265.521,86.1357 264.4273,87.5732C263.9585,87.0107 263.4741,86.4794 262.9742,85.9794C261.2241,87.9169 258.9585,89.8388 256.1773,91.745C253.4273,93.6513 249.271,95.4794 243.7085,97.2294C243.2085,95.6357 242.5367,94.2138 241.6929,92.9638L241.6929,92.5419C246.3491,91.7919 250.1148,90.495 252.9898,88.6513C255.8648,86.8075 258.1773,84.9013 259.9273,82.9325C259.1773,82.2763 258.0679,81.4013 256.5992,80.3075C255.1304,79.1825 252.8179,77.8388 249.6617,76.2763L251.8179,72.8075C255.0991,74.495 257.5366,75.8857 259.1304,76.9794C260.7241,78.0732 261.8648,78.87 262.5523,79.37C263.7085,77.5575 264.6148,75.6513 265.271,73.6513C265.9273,71.6513 266.3491,69.6826 266.5367,67.745L252.8023,67.745C252.0835,69.1201 251.0054,70.8388 249.5679,72.9013C248.1304,74.9638 245.896,77.6669 242.8648,81.0107C241.896,79.7919 240.7554,78.6513 239.4429,77.5888L239.4429,77.3544C242.2554,75.0107 244.6304,72.4482 246.5679,69.6669C248.5054,66.8857 249.8648,64.4169 250.646,62.2607C251.4585,60.0732 251.7398,58.7763 251.4898,58.37" />
		<path id="path16039" d="M248.2745,58.5622C246.4529,62.4136 240.7799,69.9863 238.2816,73.2392" class="stroke" />
		<text x="238.5999" y="62.9227" class="number">1</text>
		<path id="path16960" d="M262.6269,60.2081C262.6269,60.2081 272.3795,57.8896 275.1396,61.6802C277.8998,65.4708 274.8683,72.0521 273.6675,75.3706" class="stroke" />
		<text x="268.5409" y="57.7987" class="number">2</text>
		<path id="path17881" d="M247.5332,78.8349L255.236,84.0394" class="stroke" />
		<text x="242.8689" y="87.7272" class="number">3</text>
		<text x="245.0" y="122.5" id="cellTA" class="label cell">TA</text>
	</g>
	<g id="gSA">
		<path id="path2177" d="M173.6583,71.0586L183.5958,71.0586C183.5646,68.6523 183.5646,66.168 183.5958,63.6054C183.5958,62.9492 183.5021,62.3867 183.3146,61.9179C183.1271,61.5117 183.2521,61.2617 183.6896,61.1679L188.4239,61.5429C188.7677,61.7617 188.7677,62.0273 188.4239,62.3398L187.8614,63.1367C187.8302,65.918 187.8302,68.5586 187.8614,71.0586L200.2833,71.0586L200.2833,61.4492C200.2833,60.793 200.1896,60.2305 200.0021,59.7617C199.8146,59.3555 199.9396,59.1055 200.3771,59.0117L205.2989,59.3867C205.6427,59.6367 205.627,59.9336 205.2521,60.2773L204.7364,61.0273L204.7364,71.0586L215.4708,71.0586L215.4708,75.0429L204.7364,75.0429L204.7364,75.2773C204.7364,78.6836 204.3614,81.6992 203.6114,84.3242C202.8927,86.9179 201.6896,89.2148 200.0021,91.2148C198.3146,93.2148 195.1271,95.4648 190.4396,97.9648C189.9083,96.6211 189.0489,95.3242 187.8614,94.0742L187.8614,93.5586C191.0489,92.4961 193.5958,91.1836 195.5021,89.6211C197.4083,88.0273 198.6739,86.0742 199.2989,83.7617C199.9552,81.4492 200.2833,78.6211 200.2833,75.2773L200.2833,75.0429L187.9552,75.0429C188.0489,78.6367 188.2052,81.9492 188.4239,84.9804L183.9708,85.6367C183.7833,82.2929 183.6583,78.7617 183.5958,75.0429L173.6583,75.0429L173.6583,71.0586" />
		<path id="path18802" d="M168.1567,67.9305L181.1682,68.0346" class="stroke" />
		<text x="167.8638" y="65.5724" class="number">1</text>
		<path id="path19723" d="M191.6679,58.0074L191.9623,68.6064" class="stroke" />
		<text x="189.2027" y="56.8287" class="number">2</text>
		<path id="path20644" d="M208.7451,57.9629L208.7451,68.4762" class="stroke" />
		<text x="206.0582" y="56.793" class="number">3</text>
		<text x="178.8173" y="122.5" id="cellSA" class="label cell">SA</text>
	</g>
	<g id="gKA">
		<path id="path2187" d="M109.6078,91.9621C112.7952,89.3059 115.4671,86.4153 117.6234,83.2903C119.8109,80.134 121.1859,77.3997 121.7484,75.0871C122.3421,72.7747 122.7327,71.0403 122.9203,69.884C118.4515,70.1028 113.9671,70.3997 109.4671,70.7746C109.4046,69.1809 109.2171,67.759 108.9046,66.509L108.9046,66.2278L123.4359,65.8059C123.5609,64.2434 123.639,62.6184 123.6703,60.9309L123.6703,57.9309C123.6702,57.2747 123.5765,56.7122 123.389,56.2434C123.2015,55.8372 123.3265,55.5872 123.764,55.4934L128.4515,55.7746C128.889,55.8997 128.9202,56.1809 128.5453,56.6184L128.0765,57.3684L128.0765,61.0246C128.0452,62.6184 127.9515,64.1653 127.7953,65.6653L139.7015,65.3371L139.8421,65.1965C139.9671,65.0403 140.1077,65.0403 140.264,65.1965C141.264,65.884 142.2796,66.6184 143.3109,67.3996C143.9358,67.7747 143.9358,68.1809 143.3109,68.6184L142.7015,69.0871C142.6702,75.1809 142.514,79.6653 142.2328,82.5403C141.9827,85.4153 141.7483,87.3684 141.5296,88.3996C141.3421,89.3996 141.1077,90.2746 140.8265,91.0246C140.5452,91.7746 139.9671,92.5871 139.0921,93.4621C138.2483,94.3684 137.0296,94.6028 135.4359,94.1653C133.8733,93.7278 131.9046,93.134 129.5296,92.384C130.0296,90.9153 130.389,89.384 130.6078,87.7903L130.9359,87.6965C132.4983,88.509 133.7327,89.009 134.639,89.1965C135.5452,89.3528 136.1077,89.3371 136.3265,89.1496C136.5765,88.9309 136.8265,88.5246 137.0765,87.9309C137.3265,87.3059 137.6077,85.634 137.9203,82.9153C138.2327,80.1653 138.3577,75.6965 138.2953,69.509C134.639,69.509 130.9671,69.5872 127.2796,69.7434C127.0608,70.9309 126.6233,72.7903 125.9671,75.3215C125.3108,77.8215 124.014,80.7903 122.0765,84.2278C120.1702,87.6653 117.139,91.5871 112.9828,95.9934C112.014,94.6809 110.889,93.4465 109.6078,92.2903L109.6078,91.9621" />
		<path id="path21565" d="M106.5812,62.7107L118.9467,62.1218" class="stroke" />
		<text x="105.5186" y="60.1257" class="number">1</text>
		<path id="path22486" d="M136.17,61.533C136.17,61.533 143.3973,60.1241 147.2494,62.2616C151.0513,64.3712 149.929,71.3748 149.9201,74.4473" class="stroke" />
		<path id="path23403" d="M132.4862,52.5249L131.8617,63.0381" class="stroke" />
		<text x="134.5875" y="56.2041" class="number">2</text>
		<text x="114.8173" y="122.5" id="cellKA" class="label cell">KA</text>
	</g>
	<g id="gA">
		<path id="path2197" d="M49.1932,62.0303L82.1463,61.6084L82.5213,61.1396C82.6463,60.9834 82.7869,60.9834 82.9432,61.1396C84.0369,62.0147 85.4119,63.0928 87.0682,64.374C87.6932,64.9365 87.6307,65.4053 86.8807,65.7803L85.4276,66.4365C83.3963,69.3115 81.5057,71.6553 79.7557,73.4678C78.0057,75.249 75.4588,77.3272 72.1151,79.7021C71.3338,78.1397 70.4901,76.9834 69.5838,76.2334C69.2088,80.1709 68.2557,83.9365 66.7245,87.5303C65.1932,91.124 62.3182,94.5771 58.0995,97.8896C57.2557,96.4209 56.2245,95.1396 55.0057,94.0459L55.0057,93.7646C58.412,91.8271 60.9901,89.2647 62.7401,86.0771C64.4901,82.8584 65.3963,78.4053 65.4588,72.7178C65.4588,72.0615 65.3651,71.499 65.1776,71.0303C64.9901,70.624 65.1151,70.374 65.5526,70.2803L70.287,70.5615C70.7557,70.6553 70.8182,70.8897 70.4745,71.2646L69.8182,72.1553C69.787,73.249 69.7401,74.2959 69.6776,75.2959C72.0838,74.2022 74.1932,72.874 76.0057,71.3115C77.8182,69.749 79.3026,67.749 80.4588,65.3115C69.8026,65.4053 59.6932,65.8428 50.1307,66.624C49.9432,65.0928 49.6307,63.7803 49.1932,62.6865L49.1932,62.0303" />
		<path id="path24324" d="M46.5914,59.1777C48.6523,59.1777 60.8706,58.5888 60.8706,58.5888" class="stroke" />
		<text x="44.6456" y="56.2983" class="number">1</text>
		<path id="path25245" d="M78.6827,58.8832C78.6827,58.8832 84.6917,56.9201 88.7182,59.368C95.7658,63.6527 89.7133,71.2861 87.4081,74.8772" class="stroke" />
		<path id="path26162" d="M62.8817,72.1982C64.3911,78.6519 57.6251,85.3138 53.9298,89.2693" class="stroke" />
		<text x="53.8242" y="79.1549" class="number">2</text>
		<text x="58.8173" y="122.5" id="cellA" class="label cell">A</text>
	</g>

	<g id="gWI">
		<text x="625.311" y="142.3566" class="number">1</text>
		<path class="old" id="path2073" d="M642.227,139.4405C641.9457,139.5108 641.8441,139.7687 641.9145,140.1905C642.1019,140.5656 642.1957,141.2843 642.1957,142.3468L642.1957,148.253L625.5395,148.253L625.5395,152.2218L630.0082,152.2218L630.0082,162.878L621.4145,162.878L621.4145,166.8468L642.1957,166.8468L642.1957,178.8155L646.6332,178.8155L646.6332,166.8468L661.352,166.8468L661.352,162.878L646.6332,162.878L646.6332,152.2218L655.0707,152.2218L655.0707,148.253L646.6332,148.253L646.6332,141.4405L647.1957,140.4093C647.4457,140.0655 647.4144,139.8156 647.102,139.6593L642.5707,139.4405C642.4379,139.4249 642.3207,139.4171 642.227,139.4405z M634.352,152.2218L642.1957,152.2218L642.1957,162.878L634.352,162.878L634.352,152.2218z " />
		<path id="path45507" d="M626.957,144.8528L637.4088,144.8528" class="stroke" />
		<path id="path46424" d="M624.3072,151.6244L624.0128,160.8985" class="stroke" />
		<path id="path47341" d="M623.3277,170.1487L638.2128,170.3569" class="stroke" />
		<text x="616.1509" y="157.0335" class="number">2</text>
		<text x="623.2292" y="178.3724" class="number">3</text>
		<path id="path48266" d="M650.7038,135.0697L650.5998,145.6871" class="stroke" />
		<text x="653.7281" y="142.9811" class="number">4</text>
		<text x="627.0" y="202.5" id="cellWI" class="label cell">WI</text>
	</g>
	<g id="gRI">
		<text x="551.9029" y="145.9881" class="number">1</text>
		<path id="path2089" d="M581.7581,137.3648C581.3206,137.4586 581.1956,137.7086 581.3831,138.1148C581.5706,138.5836 581.6643,139.1461 581.6643,139.8023L581.6643,151.5836C581.6643,156.6774 581.3518,160.3961 580.6956,162.7711C580.0706,165.1461 578.5706,167.3336 576.1956,169.3023C573.8518,171.2711 570.9456,172.6774 567.4768,173.5523L567.4768,174.0836C568.6331,175.1773 569.5393,176.4899 570.2268,178.0523C575.0706,175.7398 578.6018,173.3961 580.8206,171.0211C583.0393,168.6149 584.5081,166.0524 585.1956,163.3023C585.8831,160.5211 586.2268,156.6149 586.2268,151.5836L586.2268,139.2398L586.6956,138.1773C586.9143,137.9274 586.8206,137.7086 586.4143,137.5211L581.7581,137.3648z M563.6643,139.2398C563.2268,139.3336 563.1018,139.5836 563.2893,139.9898C563.4768,140.4586 563.5706,141.0211 563.5706,141.6773L563.5706,162.3023L568.1331,162.3023L568.1331,141.0836L568.6956,140.1461C568.9768,139.8024 568.9143,139.5524 568.5081,139.4273L563.6643,139.2398z " />
		<path id="path43665" d="M558.7196,140.0661L558.7196,155.4717" class="stroke" />
		<path id="path44582" d="M592.029,137.5679L592.029,154.639" class="stroke" />
		<text x="595.7446" y="143.1949" class="number">2</text>
		<text x="565.0" y="202.5" id="cellRI" class="label cell">RI</text>
	</g>
	<g id="gMI">
		<path id="path2113" d="M440.2733,139.5988L439.0546,143.5988C446.1483,144.5676 452.9295,146.4739 459.3983,149.3176C460.0233,147.6926 460.7108,146.3176 461.4296,145.1926L461.4296,144.9113C455.5233,142.9426 448.4608,141.1614 440.2733,139.5988z M440.0858,151.6926L438.9608,155.9113C445.3671,156.9114 451.6483,158.7238 457.8046,161.3176C458.5545,159.6301 459.2733,158.2863 459.9608,157.3176L459.9608,156.9426C453.7733,154.9739 447.1483,153.2239 440.0858,151.6926z M435.3983,163.6926L434.0858,168.3801C443.9296,169.8801 453.0233,172.8488 461.3671,177.2551C462.242,175.3488 463.0858,173.7551 463.8671,172.4738L463.8671,172.0988C455.2733,168.6613 445.7733,165.8488 435.3983,163.6926z " />
		<path id="path42732" d="M442.6191,135.9024C447.1731,136.0846 453.4967,139.0772 457.0879,140.7948" class="stroke" />
		<text x="436.2188" y="137.2444" class="number">1</text>
		<path class="stroke" d="M439.2881,147.5607C444.805,147.2485 451.2587,150.4753 455.1101,152.5572" id="path43653" />
		<text x="433.0109" y="149.8568" class="number">2</text>
		<path id="path43659" d="M436.6859,160.6763C442.4109,160.4941 448.7865,163.4087 451.6751,164.5277" class="stroke" />
		<text x="430.5127" y="162.1396" class="number">3</text>
		<text x="437.0" y="202.5" id="cellMI" class="label cell">MI</text>
	</g>
	<g id="gHI">
		<path id="path2127" d="M398.086,151.2315C398.5235,151.7315 398.3985,151.9815 397.711,151.9815L396.586,151.9346C391.1797,154.1534 383.8516,156.0909 374.6016,157.7471L374.6016,166.3253C374.6016,168.6065 375.5547,169.7471 377.461,169.7471L401.2266,169.7471L400.5704,174.1065L377.5548,174.1065C372.6172,174.1065 370.1485,171.5596 370.1485,166.4659L370.1485,142.8878C370.1485,142.2315 370.0547,141.669 369.8673,141.2003C369.6797,140.794 369.8047,140.544 370.2423,140.4503L375.0235,140.7315C375.4297,140.8565 375.4922,141.1222 375.211,141.5284L374.6016,142.419L374.6016,153.9503C381.6016,152.7315 386.4922,151.4971 389.2735,150.2471C392.086,148.9972 393.5547,148.1534 393.6798,147.7159C393.8985,147.2784 394.1953,147.1378 394.5704,147.294L398.086,151.2315" />
		<path id="path39973" d="M377.0706,150.7947C382.7687,149.5237 386.4622,147.5022 390.7031,145.2944" class="stroke" />
		<text x="377.3358" y="146.8209" class="number">1</text>
		<path id="path40894" d="M366.2487,138.4007L366.1446,149.4344" class="stroke" />
		<text x="359.9714" y="140.2804" class="number">2</text>
		<path id="path41815" d="M365.2308,166.0207C365.2308,169.5234 364.3317,173.4278 367.6502,176.1851C370.9687,178.9424 377.8598,178.3555 382.8332,178.0976" class="stroke" />
		<text x="375.0" y="202.5" id="cellHI" class="label cell">HI</text>
	</g>
	<g id="gNI">
		<path id="path2143" d="M308.4005,145.6984L308.4005,149.8546L335.588,149.8546L335.588,145.6984L308.4005,145.6984z M301.7443,168.3859L301.7443,172.5421L342.2443,172.5421L342.2443,168.3859L301.7443,168.3859z " />
		<path id="path38131" d="M311.8706,141.6142L331.0076,141.6142" class="stroke" />
		<path id="path39048" d="M303.9213,165.4619L327.1802,165.4619" class="stroke" />
		<text x="311.3745" y="139.2221" class="number">1</text>
		<text x="303.3784" y="162.6601" class="number">2</text>
		<text x="311.0" y="202.5" id="cellNI" class="label cell">NI</text>
	</g>
	<g id="gCHI">
		<path id="path2159" d="M237.6742,155.2739L256.7055,155.2739L256.7055,148.6176C256.7055,147.9614 256.6117,147.3989 256.4242,146.9301L256.3774,146.8364C253.0961,147.5239 248.9086,148.2739 243.8149,149.0864C243.4086,147.4301 242.8774,146.1333 242.2211,145.1957L242.3149,144.6801C246.9399,144.4614 250.8617,144.0239 254.0805,143.3676C257.3305,142.7114 260.2211,141.9458 262.7524,141.0707C265.2836,140.1645 266.5805,139.5708 266.643,139.2895C266.9242,138.8208 267.2523,138.7895 267.6274,139.1957L269.9242,142.5239C270.3617,143.0239 270.268,143.3051 269.643,143.3676L268.7055,143.3676C265.1742,144.6176 261.9711,145.5864 259.0961,146.2739L261.4399,146.3676C261.8773,146.4926 261.9398,146.7739 261.6274,147.2114L261.1586,148.0082L261.1586,155.2739L278.1743,155.2739L278.1743,159.4457L261.018,159.4457C260.8617,161.602 260.5023,163.7739 259.9399,165.9614C259.3773,168.1176 258.1742,170.2582 256.3305,172.3832C254.4867,174.5082 251.4086,176.4301 247.0961,178.1489C246.5649,176.6489 245.768,175.3832 244.7055,174.352L244.7055,173.8364C248.0805,172.9926 250.6274,171.8364 252.3461,170.3676C254.0961,168.8676 255.2055,167.1801 255.6742,165.3051C256.143,163.3989 256.4555,161.4457 256.6117,159.4457L237.6742,159.4457L237.6742,155.2739" />
		<path id="path35366" d="M264.4183,136.6912C259.0107,139.5469 251.0662,140.3086 243.9658,141.4162" class="stroke" />
		<text x="253.74" y="136.8668" class="number">1</text>
		<path id="path36289" d="M238.3931,152.0903L252.7578,152.0903" class="stroke" />
		<text x="235.7338" y="150.0002" class="number">2</text>
		<path id="path37210" d="M264.6909,160.9416C265.9103,169.143 261.5644,171.9124 258.2045,175.3384" class="stroke" />
		<text x="267.3777" y="171.6513" class="number">3</text>
		<text x="239.0" y="202.5" id="cellTI" class="label cell">CHI</text>
	</g>
	<g id="gSHI">
		<path id="path2175" d="M180.4872,139.6531L178.331,143.3718C182.1122,144.6531 185.581,146.8094 188.7372,149.8718C189.6435,148.4344 190.5497,147.0906 191.456,145.8093C188.1747,143.4656 184.5185,141.4031 180.4872,139.6531z M175.6122,150.3406L173.456,154.0593C177.2372,155.3406 180.706,157.4969 183.8622,160.5593C184.7685,159.1219 185.6747,157.7781 186.581,156.4968C183.2997,154.1531 179.6435,152.0906 175.6122,150.3406z M207.9247,150.4343C206.331,154.1219 203.9559,157.5906 200.831,160.8406C197.706,164.0594 194.0497,166.6219 189.831,168.5281C185.6435,170.4031 182.6435,171.4656 180.8622,171.6843C179.081,171.9031 177.9247,171.9656 177.3935,171.9031C176.8622,171.9656 176.706,172.2468 176.9247,172.7468L178.706,177.4031C178.956,177.9031 179.2685,177.9031 179.6122,177.4343L180.1747,176.6531C184.4247,175.5593 188.7997,173.8719 193.331,171.5906C197.8935,169.2781 201.7684,166.3406 204.9247,162.8093C208.0809,159.2781 210.5184,155.9969 212.2685,152.9656C210.8309,152.3406 209.3934,151.4969 207.9247,150.4343z " />
		<path id="path31688" d="M178.8947,135.2768C180.0724,135.5713 190.2297,141.3124 190.2297,141.3124" class="stroke" />
		<path id="path32605" d="M174.3134,145.5205L184.4707,151.7032" class="stroke" />
		<path id="path33522" d="M185.8092,179.5033C191.6332,178.2688 196.6196,174.7589 202.4437,170.818" class="stroke" />
		<text x="173.141" y="138.3389" class="number">1</text>
		<text x="168.7168" y="147.8112" class="number">2</text>
		<text x="179.465" y="183.3002" class="number">3</text>
		<text x="175.0" y="202.5" id="cellSI" class="label cell">SHI</text>
	</g>
	<g id="gKI">
		<path id="path2185" d="M140.3294,142.6327L141.3606,146.617C137.2668,147.2421 133.0481,147.9139 128.7044,148.6327C129.3293,151.5702 130.0012,154.5389 130.72,157.5389C135.8762,156.7577 140.8606,155.9452 145.6731,155.1014L147.0325,159.4139C142.095,160.0077 136.97,160.6952 131.6575,161.4764C132.8137,166.1952 134.0481,170.9764 135.3606,175.8202L135.3137,176.2889C134.0325,176.4452 132.4387,176.9608 130.5325,177.8358C129.2512,171.9295 128.1106,166.7108 127.1106,162.1795C121.7043,163.0545 116.1106,164.0389 110.3294,165.1327C110.1418,163.6952 109.72,162.2889 109.0637,160.9139L109.2044,160.492C115.0793,159.7733 120.7668,159.0077 126.2669,158.1952C125.5168,154.7577 124.8606,151.8202 124.2981,149.3827C120.2356,150.0389 116.0637,150.7421 111.7825,151.492C111.5637,150.0546 111.22,148.7264 110.7512,147.5077L110.8919,147.0858C115.2356,146.5858 119.4231,146.0546 123.4544,145.492C122.4543,141.1796 121.845,138.8983 121.6262,138.6483C121.2512,138.1483 121.345,137.8827 121.9075,137.8514L126.6419,137.242C127.0168,137.3046 127.1262,137.5233 126.97,137.8983L126.6887,138.8358C127.0637,140.8046 127.47,142.8046 127.9075,144.8358C132.2512,144.1483 136.3918,143.4139 140.3294,142.6327" />
		<path id="path28925" d="M108.2005,144.1167L118.9467,142.9391" class="stroke" />
		<path id="path29842" d="M108.9366,157.2183L121.302,155.1574" class="stroke" />
		<path id="path30759" d="M128.368,131.1624L131.0178,140.5838" class="stroke" />
		<text x="103.0161" y="146.9785" class="number">1</text>
		<text x="103.0678" y="159.6777" class="number">2</text>
		<text x="132.6566" y="138.3325" class="number">3</text>
		<text x="119.0" y="202.5" id="cellKI" class="label cell">KI</text>
	</g>
	<g id="gI">
		<path id="path2195" d="M73.4389,137.5739C73.5639,137.0115 73.892,136.7927 74.4233,136.9177L79.3452,139.4489C79.8451,139.7615 79.8764,140.0427 79.4389,140.2927L78.1733,140.7614C76.1108,143.4177 74.1733,145.6521 72.3608,147.4646C70.5483,149.2771 69.0326,150.7146 67.8139,151.7771L69.3608,151.8708C69.8608,151.9021 69.9545,152.1365 69.6421,152.5739L69.1733,153.2771L69.1733,169.4021C69.1733,172.6833 69.2358,175.1208 69.3608,176.7146L64.4389,176.7146C64.6264,173.4021 64.7202,169.0896 64.7202,163.7771L64.7202,154.3083C63.8764,154.9646 62.3452,156.0896 60.1264,157.6833C57.9389,159.2458 53.642,161.6989 47.2358,165.0427C46.6733,163.4802 45.8764,161.9958 44.8452,160.5896L44.8452,160.2146C49.4702,158.6208 53.7827,156.5115 57.7827,153.8864C61.7827,151.2615 64.9702,148.7458 67.3452,146.3396C69.7201,143.9333 71.392,141.9646 72.3608,140.4333C73.3295,138.9021 73.6889,137.949 73.4389,137.5739" />
		<path id="path27083" d="M68.0838,137.4924C66.2805,144.3744 53.8414,149.9315 47.3274,153.2437" class="stroke" />
		<text x="55.5389" y="142.7095" class="number">1</text>
		<path id="path28004" d="M75.4442,150.5939L75.4442,170.1726" class="stroke" />
		<text x="78.1135" y="158.9417" class="number">2</text>
		<text x="63.0" y="202.5" id="cellI" class="label cell">I</text>
	</g>

	<g id="gRU">
		<path id="path2085" d="M578.6318,220.9148C578.1943,221.0086 578.0693,221.2586 578.2568,221.6648C578.4443,222.1336 578.538,222.6961 578.5381,223.3523L578.5381,249.7898L576.8506,250.4461L576.8506,250.9148C577.7255,251.6023 578.5693,252.7273 579.3818,254.2898C584.3193,251.9773 588.2568,249.4773 591.1943,246.7898C594.1318,244.0711 596.9443,240.5711 599.6318,236.2586C598.3193,235.3523 597.0068,234.3836 595.6631,233.3523L595.1318,233.4461C593.1943,237.9773 591.1318,241.2273 588.9443,243.1961C586.788,245.1336 584.8193,246.6023 583.0068,247.6336L583.0068,222.7898L583.4756,221.9461C583.788,221.5398 583.7255,221.2586 583.3193,221.1023L578.6318,220.9148z M567.4443,223.7273C567.0068,223.8211 566.8818,224.0711 567.0693,224.4773C567.2881,224.9461 567.3818,225.5086 567.3818,226.1648C567.5068,232.8523 566.663,238.1336 564.8506,242.0086C563.0381,245.8523 560.1943,249.0398 556.3193,251.5398L556.3193,252.1023C557.5381,252.7898 558.7255,253.8523 559.8818,255.2898C563.9443,251.5711 566.9443,247.4773 568.8818,243.0086C570.8193,238.5398 571.788,232.7273 571.7568,225.6023L572.2256,224.6336C572.4443,224.3523 572.3818,224.1336 572.0381,224.0086L567.4443,223.7273z " />
		<path id="path49187" d="M564.0482,225.6701C564.0055,232.8445 558.4632,241.4241 556.1852,244.8712" class="stroke" />
		<path id="path50104" d="M585.7121,222.0191L585.8162,237.9451L594.3517,229.6178" class="stroke" />
		<text x="555.3928" y="231.8126" class="number">1</text>
		<text x="587.9704" y="224.3424" class="number">2</text>
		<text x="562.0" y="282.5" id="cellRU" class="label cell">RU</text>
	</g>
	<g id="gYU">
		<path id="path2097" d="M494.2911,246.558L519.6036,246.558L520.5411,228.9799L499.4474,228.9799L499.4474,224.9955L525.3692,224.9955L524.0567,246.558L534.2286,246.558L534.2286,250.5424L494.2911,250.5424L494.2911,246.558" />
		<path id="path51029" d="M511.2867,221.2578L530.0233,221.2578L528.7742,235.6225" class="stroke" />
		<path id="path51946" d="M496.9221,254.359L514.2013,254.359" class="stroke" />
		<text x="512.1236" y="219.1134" class="number">1</text>
		<text x="490.9898" y="258.2764" class="number">2</text>
		<text x="498.0" y="282.5" id="cellYU" class="label cell">YU</text>
	</g>
	<g id="gMU">
		<path id="path2107" d="M446.7077,219.4925C446.7389,218.9613 447.0201,218.7894 447.5514,218.9769L452.4733,220.1487C453.0045,220.3675 453.0045,220.6644 452.4733,221.0394L451.6764,221.7894C450.4576,226.5394 449.1451,230.6488 447.7389,234.1175C446.3639,237.555 444.4264,241.8519 441.9264,247.0081C443.3014,246.9144 445.192,246.7738 447.5983,246.5862C450.0358,246.3988 455.0045,245.7581 462.5045,244.6644C461.1607,242.0706 459.3326,239.3363 457.0202,236.4612L460.7233,233.7894C463.317,237.1956 465.4889,240.4456 467.2389,243.5394C468.9889,246.6019 470.4889,249.3363 471.7389,251.7425L471.6452,252.1175C470.1451,252.7113 468.4264,253.555 466.4889,254.6487C465.7701,252.3675 464.9576,250.18 464.0514,248.0862C457.2701,249.1488 452.2701,249.8831 449.0514,250.2894C445.8639,250.6956 440.942,251.4769 434.2858,252.6331L433.6764,253.5237C433.3326,254.055 433.0201,254.0863 432.7389,253.6175L430.6764,248.2737C430.6139,247.7425 430.8014,247.5706 431.2389,247.7581C431.6451,247.8831 433.5358,247.7894 436.9108,247.4769C439.7858,242.0081 441.9264,237.3363 443.3327,233.4612C444.7389,229.5863 445.7076,226.3988 446.2389,223.8987C446.8014,221.3675 446.9576,219.8988 446.7077,219.4925" />
		<path id="path52871" d="M433.3771,233.3472C433.3771,233.3472 422.1352,248.3885 424.4252,254.3738C426.7152,260.3591 439.1133,257.1854 445.1869,255.9635" class="stroke" />
		<path id="path53788" d="M464.2508,233.1524C469.5672,235.1832 472.289,243.6165 474.0663,247.9373" class="stroke" />
		<text x="422.3977" y="238.8392" class="number">1</text>
		<text x="469.1268" y="234.5759" class="number">2</text>
		<text x="432.0" y="282.5" id="cellMU" class="label cell">MU</text>
	</g>
	<g id="gHU">
		<path id="path2125" d="M369.2074,224.0022L399.1137,224.0022L399.1606,223.9553C399.2855,223.7991 399.4262,223.7991 399.5824,223.9553C400.4262,224.6741 401.4418,225.5178 402.6293,226.4865C403.0355,226.9553 403.0199,227.4241 402.5824,227.8928L401.9731,228.4084C401.723,231.4397 401.1137,234.2366 400.1449,236.799C399.2074,239.3616 397.598,241.9553 395.3168,244.5803C393.0668,247.2053 390.3793,249.3772 387.2543,251.0959C384.1606,252.7834 379.7699,254.299 374.0824,255.6428C373.8949,254.0178 373.5356,252.5022 373.0043,251.0959L373.0043,250.5803C377.4106,250.0803 381.0512,249.2053 383.9262,247.9553C386.8012,246.674 389.2231,244.9709 391.1918,242.8459C393.1606,240.6897 394.6137,238.4397 395.5512,236.0959C396.4887,233.7209 397.0199,231.0803 397.1449,228.174L369.2074,228.174L369.2074,224.0022" />
		<path id="path54713" d="M368.9162,220.665L381.2817,220.9594" class="stroke" />
		<path id="path55630" d="M398.288,245.857C396.8213,249.2273 388.5495,254.4224 385.8241,256.115" class="stroke" />
		<text x="369.3267" y="218.5245" class="number">1</text>
		<text x="370.0" y="282.5" id="cellHU" class="label cell">FU</text>
	</g>
	<g id="gNU">
		<path id="path2139" d="M309.2297,223.8033C317.1359,223.6471 325.0421,223.3189 332.9484,222.8189L333.1828,222.4439C333.3078,222.2877 333.4484,222.2877 333.6047,222.4439C334.6671,223.2564 335.8234,224.2877 337.0734,225.5377C337.6359,225.9127 337.5734,226.3189 336.8859,226.7564L336.0422,227.272C334.7921,231.1158 332.5734,235.4127 329.3859,240.1627C332.5109,242.5377 335.5265,245.0689 338.4328,247.7564L338.4328,248.1783C337.0578,249.2408 335.9015,250.5064 334.9641,251.9752C332.339,248.6939 329.6046,245.8502 326.7609,243.4439C324.9796,245.3814 322.589,247.4283 319.5891,249.5845C316.6203,251.7408 312.714,253.8189 307.8703,255.8189C307.214,254.2564 306.4015,252.8345 305.4328,251.5533L305.4328,251.0377C309.6203,250.1939 313.1515,248.8345 316.0266,246.9595C318.9328,245.0845 321.3859,243.022 323.3859,240.772C320.8234,238.9596 318.089,237.3502 315.1828,235.9439L317.2922,232.2408C320.4484,234.0533 323.3078,235.8502 325.8703,237.6314C328.4953,233.9439 330.1828,230.3971 330.9328,226.9908C324.464,227.2408 317.4953,227.6783 310.0266,228.3033C309.8078,226.5846 309.4953,225.1939 309.0891,224.1314L309.2297,223.8033" />
		<path id="path57466" d="M305.5406,220.8122L317.3173,220.2234" class="stroke" />
		<text x="304.3317" y="218.2301" class="number">1</text>
		<path id="path58387" d="M324.3096,250.5482C320.8687,255.0013 316.342,256.2525 313.0482,257.6142" class="stroke" />
		<path id="path59304" d="M308.8229,236.3511L318.3994,241.868" class="stroke" />
		<text x="302.7704" y="239.1526" class="number">2</text>
		<text x="304.0" y="282.5" id="cellNU" class="label cell">NU</text>
	</g>
	<g id="gTSU">
		<path id="path2157" d="M271.2525,221.2207C270.901,221.2324 270.6978,221.4473 270.6275,221.8457C270.8775,222.2207 270.9088,223.4395 270.69,225.5019C270.4713,227.5644 269.5338,230.7832 267.9088,235.1894C266.2838,239.5644 263.6275,243.2832 259.9088,246.3457C256.19,249.3769 251.9713,251.5019 247.2838,252.6894L247.2838,253.0644C248.3775,254.3769 249.2213,255.7832 249.7838,257.3144C256.0025,254.6582 260.9088,251.5957 264.5025,248.1269C268.0963,244.6582 270.7212,240.6894 272.4088,236.2207C274.1275,231.7207 275.2525,227.7207 275.7838,224.1894L276.5963,223.3769C276.94,223.0332 276.9088,222.7832 276.5026,222.5957L271.6588,221.2832C271.5104,221.2441 271.3697,221.2168 271.2525,221.2207z M252.69,221.3144L249.5025,224.0019C252.2213,226.5644 254.565,229.8144 256.5338,233.7519C257.815,232.6269 259.1275,231.6269 260.4713,230.7832C258.19,227.4394 255.5963,224.2832 252.69,221.3144z M242.19,225.0644L239.0025,227.7519C241.7213,230.3144 244.065,233.5644 246.0338,237.5019C247.315,236.3769 248.6275,235.3769 249.9713,234.5332C247.69,231.1894 245.0963,228.0332 242.19,225.0644z " />
		<path id="path60225" d="M254.6062,217.807L261.8194,225.9035" class="stroke" />
		<path id="path61142" d="M244.048,222.2125L251.3344,232.2053" class="stroke" />
		<text x="240.2855" y="220.538" class="number">1</text>
		<text x="249.3414" y="216.6866" class="number">2</text>
		<path id="path62067" d="M279.703,224.3452C277.8945,234.5779 275.9689,237.9203 274.0303,242.1678" class="stroke" />
		<text x="277.9667" y="222.6198" class="number">3</text>
		<text x="236.0" y="282.5" id="cellTU" class="label cell">TSU</text>
	</g>
	<g id="gSU">
		<path id="path2169" d="M178.3619,223.3731C185.7682,223.4982 193.3463,223.3107 201.0963,222.8106L201.3776,222.5763C201.5025,222.42 201.6431,222.42 201.7994,222.5763C203.1119,223.5763 204.315,224.4669 205.4088,225.2481C205.94,225.6857 205.8775,226.1232 205.2213,226.5606L204.2369,227.2169C203.1744,230.1544 202.1275,232.4669 201.0963,234.1544C200.065,235.8107 199.2213,237.0763 198.5651,237.9513C202.315,240.7325 205.2213,243.0919 207.2838,245.0294C209.3775,246.9356 211.5338,248.8419 213.7526,250.7481L213.7526,251.17C212.44,252.2013 211.19,253.4981 210.0026,255.0606C207.6588,252.0606 205.4713,249.5606 203.4401,247.5606C201.44,245.5294 198.9556,243.3731 195.9869,241.0919C195.3306,241.7794 194.1744,242.9513 192.5182,244.6075C190.8619,246.2638 188.5807,248.045 185.6744,249.9513C182.7994,251.8263 179.1744,253.8106 174.7994,255.9044C174.3307,254.1856 173.6432,252.6856 172.7369,251.4044L172.7369,250.8888C176.2682,249.7325 179.3932,248.4044 182.1119,246.9044C184.8619,245.4044 187.4869,243.4981 189.9869,241.1856C192.5181,238.8419 194.5181,236.545 195.9869,234.295C197.4869,232.045 198.69,229.5607 199.5963,226.8419L179.1119,228.0138C179.0494,226.4513 178.7525,225.045 178.2213,223.795L178.3619,223.3731" />
		<path id="path62988" d="M189.299,219.1916C189.299,219.1916 204.3877,217.2873 207.8103,220.1211C211.2328,222.9548 207.2913,230.7357 205.904,234.274" class="stroke" />
		<text x="183.7966" y="221.7871" class="number">1</text>
		<path id="path63909" d="M195.7411,245.0948L203.8602,253.7344" class="stroke" />
		<text x="191.3953" y="253.0146" class="number">2</text>
		<text x="178.0" y="282.5" id="cellSU" class="label cell">SU</text>
	</g>
	<g id="gKU">
		<path id="path2183" d="M126.0838,219.0317C126.1462,218.563 126.4275,218.3912 126.9275,218.5161L131.1931,219.3599C131.6931,219.5162 131.74,219.7818 131.3338,220.1567L130.6775,220.813C130.2712,222.0005 129.8494,223.1412 129.4119,224.2349L142.4431,224.2349L142.5838,224.0474C142.7087,223.8912 142.8493,223.8912 143.0056,224.0474C143.8493,224.7349 144.8806,225.5474 146.0994,226.4849C146.5993,226.8599 146.5837,227.2818 146.0525,227.7505L145.3025,228.2661C145.115,230.0474 144.5056,232.2974 143.4744,235.0161C142.4743,237.7037 140.8806,240.5161 138.6931,243.4536C136.5056,246.3599 133.8494,248.9693 130.7244,251.2817C127.6306,253.563 123.5525,255.6411 118.49,257.5161C117.99,255.9224 117.3181,254.5005 116.4744,253.2505L116.4744,252.8286C120.6306,251.9849 124.2244,250.5474 127.2556,248.5161C130.2869,246.4536 132.7712,244.1724 134.7088,241.6724C136.6775,239.1724 138.0994,236.7037 138.9744,234.2661C139.8806,231.8287 140.4118,229.813 140.5681,228.2192L127.5838,228.2192C126.8025,229.7505 125.6775,231.5787 124.2088,233.7036C122.74,235.7974 120.49,238.2662 117.4588,241.1099C116.49,239.8911 115.365,238.7037 114.0838,237.5474L114.0838,237.313C116.865,235.4693 119.2244,233.188 121.1619,230.4692C123.0994,227.7193 124.4587,225.2349 125.24,223.0161C126.0525,220.7662 126.3337,219.438 126.0838,219.0317" />
		<path id="path64830" d="M122.6269,219.7817C120.9393,224.8813 116.6011,229.7719 113.8985,233.1019" class="stroke" />
		<text x="113.0606" y="223.112" class="number">1</text>
		<path id="path65751" d="M138.9399,221.0496C138.9399,221.0496 149.0108,219.9827 151.2227,222.8192C153.4347,225.6557 149.3751,232.0833 147.7877,235.3102" class="stroke" />
		<text x="142.9349" y="219.0524" class="number">2</text>
		<text x="114.0" y="282.5" id="cellKU" class="label cell">KU</text>
	</g>
	<g id="gU">
		<path id="path2193" d="M48.8019,243.3233L48.8019,226.7295L62.5831,226.7295L62.5831,220.4951C62.5831,219.8389 62.4893,219.2764 62.3019,218.8076C62.1143,218.4014 62.2393,218.1514 62.6769,218.0576L67.3175,218.2451C67.6925,218.4014 67.7706,218.6358 67.5519,218.9483L67.0362,219.8389L67.0362,226.7295L78.5206,226.7295L78.7081,226.5889C78.8331,226.4327 78.9737,226.4327 79.13,226.5889C80.0675,227.2764 81.1456,228.1202 82.3644,229.1201C82.8643,229.5889 82.8643,230.0577 82.3644,230.5264L81.8019,231.0889C81.4893,235.1514 80.9425,238.4795 80.1612,241.0733C79.38,243.6358 77.9737,246.1514 75.9425,248.6201C73.9425,251.0577 71.5831,253.0889 68.8644,254.7139C66.1456,256.3389 62.4581,257.6358 57.8019,258.6045C57.5206,257.1045 56.9581,255.6514 56.1144,254.2451L56.1144,253.7295C59.7706,253.542 62.8018,252.917 65.2081,251.8545C67.6456,250.792 69.8487,249.167 71.8175,246.9795C73.8175,244.7608 75.1456,242.4327 75.8019,239.9951C76.4581,237.5264 76.88,234.4327 77.0675,230.7139L53.255,230.7139L53.255,243.3233L48.8019,243.3233" />
		<path id="path66672" d="M58.8097,213.4518L58.5152,223.9035" class="stroke" />
		<text x="51.7459" y="216.046" class="number">1</text>
		<path id="path67593" d="M44.5305,226.9949L44.3832,242.4518" class="stroke" />
		<text x="37.605" y="232.7428" class="number">2</text>
		<path id="path68514" d="M55.7183,233.9137C55.7183,233.9137 70.1815,231.3376 72.9416,233.9137C75.7018,236.4898 69.1373,241.8503 66.7589,244.2183" class="stroke" />
		<text x="62.1707" y="240.4455" class="number">3</text>
		<text x="56.5" y="282.5" id="cellU" class="label cell">U</text>
	</g>

	<g id="gWE">
		<path class="old" id="path2069" d="M619.9666,329.4101L637.826,329.4101L637.826,316.2851C637.826,315.2226 637.7322,314.5039 637.5448,314.1288C637.4822,313.6289 637.6854,313.3789 638.1541,313.3788L642.4198,313.707C642.9197,313.8007 643.0135,314.0507 642.701,314.457L642.1854,315.207L642.1854,317.7851C646.4041,315.5664 649.2166,313.2695 650.6229,310.8945L626.2479,310.8945C626.0291,309.582 625.6541,308.332 625.1229,307.1445L625.1229,306.7226L653.0135,306.7226L653.1541,306.5351C653.2791,306.3789 653.4197,306.3789 653.576,306.5351C654.3572,307.2226 655.4197,308.207 656.7635,309.4882C657.3885,309.9257 657.326,310.3945 656.576,310.8945L655.6854,311.3163C654.0916,314.2226 650.4353,317.6601 644.7166,321.6288C644.0603,320.3789 643.2166,319.2539 642.1854,318.2538L642.1854,329.4101L659.9041,329.4101L659.9041,333.582L619.9666,333.582L619.9666,329.4101" />
		<path id="path87855" d="M625.0685,303.6904L637.2868,303.6904" class="stroke" />
		<text x="623.8863" y="301.3847" class="number">1</text>
		<path id="path88776" d="M634.7778,314.8364L634.4655,325.8701" class="stroke" />
		<text x="626.3845" y="322.3071" class="number">2</text>
		<path id="path89697" d="M619.8927,337.0079L633.0082,336.9038" class="stroke" />
		<text x="614.3099" y="339.7946" class="number">3</text>
		<text x="623.0" y="362.5" id="cellWE" class="label cell">WE</text>
	</g>
	<g id="gRE">
		<path id="path2081" d="M564.6276,331.445L564.6276,330.9762L565.9401,330.7419L565.9401,303.4137C565.9401,302.7575 565.8464,302.195 565.6589,301.7262C565.4714,301.32 565.5964,301.07 566.0339,300.9762L570.6276,301.1637C571.0339,301.2888 571.112,301.57 570.862,302.0075L570.3932,302.8981L570.3932,329.6637C572.4557,329.1012 574.5964,328.2575 576.8151,327.1325C579.0651,326.0075 581.487,324.195 584.0807,321.695C586.7057,319.1638 588.7213,316.0856 590.1276,312.4606L590.6432,312.3669C592.1745,313.3356 593.6744,314.1169 595.1432,314.7106C593.0807,318.0856 590.7213,321.1794 588.0651,323.9919C585.4401,326.7731 582.4401,329.0544 579.0651,330.8356C575.6901,332.5856 571.6901,334.1325 567.0651,335.4762C566.4401,333.9762 565.6276,332.6325 564.6276,331.445" />
		<path id="path86934" d="M560.5933,319.1041C560.6453,324.5169 558.6898,337.57 562.7888,339.6512C568.1708,342.3838 575.1504,337.6609 578.7558,335.4518" class="stroke" />
		<text x="552.1198" y="328.6182" class="number">1</text>
		<text x="563.0" y="362.5" id="cellRE" class="label cell">RE</text>
	</g>
	<g id="gME">
		<path id="path2105" d="M457.9411,300.5476C458.0348,300.0163 458.3785,299.8288 458.9723,299.9851L463.8004,300.9226C464.1442,301.0788 464.1754,301.3288 463.8942,301.6726L463.1911,302.4694C462.6285,305.7507 461.6442,308.8757 460.2379,311.8444C458.8629,314.8132 457.8785,316.7976 457.2848,317.7976C460.3473,320.1726 463.2379,322.5007 465.9567,324.7819L465.9567,325.2038C465.0192,325.9226 463.7535,327.2663 462.1598,329.2351C459.816,326.7038 457.3004,324.2976 454.6129,322.0163C453.1754,323.9851 451.0817,326.3444 448.3317,329.0944C445.5817,331.8132 440.9098,334.5319 434.3161,337.2507C433.7848,335.8444 432.9723,334.3601 431.8786,332.7976L431.8786,332.4226C437.0973,331.0788 441.1754,329.1257 444.1129,326.5632C447.0817,323.9695 449.3942,321.5007 451.0504,319.1569C447.7067,316.6882 443.7223,314.3757 439.0973,312.2194L441.6754,308.1882C446.3317,310.5007 450.3004,312.7976 453.5817,315.0788C456.2692,309.5163 457.7223,305.7976 457.9411,303.9226C458.191,302.0476 458.191,300.9226 457.9411,300.5476" />
		<path id="path85092" d="M440.3164,303.7869C448.2734,305.8946 449.9634,308.509 452.1241,310.451" class="stroke" />
		<path id="path86009" d="M467.5297,302.54C467.1943,306.8867 462.8434,313.4271 461.1832,316.0994" class="stroke" />
		<text x="440.9726" y="302.4151" class="number">2</text>
		<text x="468.5209" y="312.637" class="number">1</text>
		<text x="433.934" y="362.5" id="cellME" class="label cell">ME</text>
	</g>
	<g id="gHE">
		<path id="path2123" d="M379.8996,306.6414C380.7121,306.6415 382.8215,308.1415 386.2277,311.1414C389.6652,314.1415 396.4308,318.9696 406.5246,325.6258L406.4777,326.1883C405.4152,327.0946 404.2589,328.4852 403.009,330.3602C392.759,321.954 386.4465,316.7977 384.0715,314.8914C381.7277,312.9852 380.3683,312.0321 379.9934,312.0321C379.5246,312.0321 378.9152,312.454 378.1652,313.2977C377.4152,314.1415 373.5558,317.6883 366.5871,323.9383C365.5559,322.5008 364.4309,321.3915 363.2121,320.6102L363.1652,320.0477C370.384,314.8602 374.8058,311.329 376.4309,309.4539C378.0871,307.579 379.2433,306.6415 379.8996,306.6414" />
		<path id="path84171" d="M367.7059,310.3604C370.7246,308.0183 374.0555,302.7617 379.7806,302.2412C385.5057,301.7208 389.3466,307.2035 391.3348,309.4236" class="stroke" />
		<text x="376.8609" y="299.3238" class="number">1</text>
		<text x="369.934" y="362.5" id="cellHE" class="label cell">HE</text>
	</g>
	<g id="gNE">
		<path id="path2137" d="M319.5841,296.2719C319.1465,296.3657 319.0215,296.6157 319.2091,297.0219C319.3965,297.4907 319.4903,298.0531 319.4903,298.7094L319.4903,304.8031L307.7716,304.8969L307.7403,305.3031C308.084,306.5531 308.3028,307.8656 308.4278,309.2406C315.1153,308.7719 321.584,308.5219 327.8028,308.4594C326.3028,311.7406 324.3965,314.3656 322.0841,316.3656C319.8028,318.3656 317.1465,320.1469 314.1466,321.6781C311.1778,323.1781 307.4278,324.4281 302.8653,325.4594L302.8653,325.9906C303.8028,327.3344 304.4903,328.7406 304.9591,330.2406C309.709,328.4594 313.1465,326.9594 315.2716,325.7406C317.4278,324.5219 318.834,323.7094 319.4903,323.3031L319.4903,337.1781L323.9591,337.1781L323.9591,322.0844L324.4278,321.2406C324.709,320.8969 324.6465,320.6469 324.2716,320.4906L323.5841,320.4594C324.584,319.7094 325.834,318.6156 327.3653,317.1781C328.8965,315.7094 330.7715,312.9281 332.9903,308.8344L334.2091,308.1781C334.7715,307.8344 334.8028,307.4281 334.3028,306.9906C332.7715,305.9594 331.4903,305.0844 330.4591,304.3656C330.3028,304.2094 330.1778,304.2094 330.0528,304.3656L329.8028,304.7094L323.9591,304.7406L323.9591,298.2719L324.5216,297.3344C324.834,296.9594 324.7715,296.7094 324.3341,296.5844L319.5841,296.2719z M330.1466,316.9281L327.8028,320.3969C331.584,322.1469 335.1153,324.7719 338.4278,328.2406C339.3965,326.7719 340.4278,325.4594 341.4903,324.3031L341.4903,323.8656C337.709,321.2406 333.9278,318.9281 330.1466,316.9281z " />
		<path id="path80487" d="M327.9758,292.4566L327.9758,301.6925" class="stroke" />
		<text x="330.7086" y="299.9126" class="number">1</text>
		<path id="path81408" d="M305.2462,301.1878L315.4035,301.0406" class="stroke" />
		<text x="303.2011" y="298.9467" class="number">2</text>
		<path id="path82329" d="M333.3168,314.4366L343.6675,320.6193" class="stroke" />
		<path id="path83246" d="M315.7663,326.9819L315.8452,336.3706" class="stroke" />
		<text x="336.2255" y="314.3814" class="number">4</text>
		<text x="307.7044" y="335.9284" class="number">3</text>
		<text x="305.934" y="362.5" id="cellNE" class="label cell">NE</text>
	</g>
	<g id="gTE">
		<path id="path2151" d="M244.5412,303.7414L244.5412,307.8977L268.635,307.8977L268.635,303.7414L244.5412,303.7414z M237.6037,315.0227L237.6037,319.2102L256.135,319.2102C256.1662,323.7102 255.1662,327.1164 253.1662,329.4602C251.1662,331.7727 248.3224,333.4914 244.635,334.6164L244.635,335.0539C245.6349,336.2102 246.4474,337.5539 247.0725,339.1164C251.7599,336.7414 255.1974,334.1164 257.3537,331.2102C259.5099,328.2727 260.6349,324.2727 260.7287,319.2102L276.4162,319.2102L276.4162,315.0227L237.6037,315.0227z " />
		<path id="path77722" d="M244.5203,300.1574L257.1802,300.1574" class="stroke" />
		<text x="244.5158" y="297.2629" class="number">1</text>
		<path id="path78645" d="M237.4489,311.7136L253.375,311.9218" class="stroke" />
		<text x="236.2925" y="309.5457" class="number">2</text>
		<path id="path79566" d="M264.4087,321.6023C264.8265,328.1719 264.8524,328.3566 259.3082,334.9261" class="stroke" />
		<text x="266.0285" y="329.4188" class="number">3</text>
		<text x="243.934" y="362.5" id="cellTE" class="label cell">TE</text>
	</g>
	<g id="gSE">
		<path id="path2167" d="M182.1318,328.4497L182.1318,315.3247C178.538,315.8872 175.0068,316.4497 171.538,317.0122C171.3505,315.2309 171.0224,313.7934 170.5536,312.6997L170.6474,312.3247C174.4599,312.0122 178.288,311.6528 182.1318,311.2466L182.1318,303.0903C182.1318,302.4341 182.038,301.8716 181.8505,301.4028C181.663,300.9966 181.788,300.7466 182.2255,300.6528L187.2411,300.9809C187.6161,301.1372 187.6786,301.4028 187.4286,301.7778L186.6786,302.8559L186.6786,310.7309C193.0849,309.9497 199.538,309.0435 206.038,308.0122L206.1318,307.9184C206.2567,307.7622 206.3973,307.7622 206.5536,307.9184C207.5848,308.6685 208.9286,309.6841 210.5849,310.9653C211.2098,311.5278 211.1473,311.9966 210.3974,312.3716L209.3193,312.6997C205.8505,316.7934 202.2567,320.7153 198.538,324.4653C197.4755,322.9653 196.4599,321.8091 195.4911,320.9966L195.4911,320.6684C198.7723,318.2934 201.663,315.4653 204.163,312.1841C198.163,312.9966 192.3349,313.8247 186.6786,314.6684L186.6786,328.3091C186.6786,330.6528 187.6317,331.8247 189.538,331.8247L207.9599,331.8247L207.3036,336.0903L189.6318,336.0903C184.6317,336.0903 182.1318,333.5434 182.1318,328.4497" />
		<path id="path74963" d="M168.0526,308.6949L178.7741,307.7581" class="stroke" />
		<text x="166.2721" y="306.2426" class="number">1</text>
		<text x="194.115" y="303.1347" class="number">2</text>
		<path id="path75888" d="M190.6406,297.5571L190.5365,307.1336" class="stroke" />
		<path id="path76805" d="M204.0684,305.4681C207.1421,305.0443 210.6747,303.9844 213.1244,306.7172C217.8909,312.0347 211.8179,316.2493 209.2234,318.936" class="stroke" />
		<text x="180.0" y="362.5" id="cellSE" class="label cell">SE</text>
	</g>
	<g id="gKE">
		<path id="path2181" d="M115.5336,333.0692C119.7523,332.038 123.0336,330.6005 125.3773,328.7567C127.7211,326.913 129.393,324.5068 130.393,321.538C131.393,318.5693 131.9242,315.3818 131.9867,311.9755L120.5492,311.9755C117.7367,316.788 114.7211,320.8974 111.5023,324.3036C110.6898,323.1474 109.5648,322.038 108.1273,320.9755L108.1273,320.5536C110.7523,318.5849 113.2055,315.788 115.4867,312.163C117.768,308.5068 119.1742,305.4755 119.7055,303.0692C120.2367,300.663 120.3773,299.2568 120.1273,298.8505C120.1586,298.3193 120.4398,298.1474 120.9711,298.3349L125.2836,299.0849C125.7836,299.2099 125.8461,299.4443 125.4711,299.788L124.768,300.538C124.2055,303.1005 123.4555,305.5224 122.518,307.8036L146.8461,307.8036L146.8461,311.9755L136.393,311.9755C136.3304,315.538 135.8148,318.8974 134.8461,322.0536C133.8773,325.2099 132.2211,328.038 129.8773,330.538C127.5336,333.038 123.5961,335.3505 118.0648,337.4755C117.5023,336.038 116.6586,334.6786 115.5336,333.3974L115.5336,333.0692" />
		<path id="path72200" d="M116.5914,298.2437C115.5977,303.5431 110.519,310.0203 107.9061,313.5533" class="stroke" />
		<text x="107.1199" y="304.3942" class="number">1</text>
		<path id="path73121" d="M127.9264,304.7208L143.236,304.868" class="stroke" />
		<text x="130.1315" y="302.1979" class="number">2</text>
		<path id="path74042" d="M138.8358,315.9814C139.044,323.3979 137.0662,326.2604 132.7985,332.0115" class="stroke" />
		<text x="140.0729" y="325.2967" class="number">3</text>
		<text x="116.0" y="362.5" id="cellKE" class="label cell">KE</text>
	</g>
	<g id="gE">
		<path id="path2191" d="M50.4879,306.5115L80.3004,306.5115L80.3004,310.6834L67.8785,310.6834L67.8785,329.3865L86.0191,329.3865L86.0191,333.5584L45.3316,333.5584L45.3316,329.3865L63.4254,329.3865L63.4254,310.6834L50.4879,310.6834L50.4879,306.5115" />
		<path id="path69435" d="M50.7147,303.0974L71.5331,303.0974" class="stroke" />
		<text x="49.7799" y="301.0084" class="number">1</text>
		<path id="path70356" d="M59.8748,312.4657L59.6666,326.414" class="stroke" />
		<text x="51.5934" y="319.7156" class="number">2</text>
		<path id="path71277" d="M46.1094,337.6054L62.9723,337.6054" class="stroke" />
		<text x="46.7355" y="345.3298" class="number">3</text>
		<text x="58.0" y="362.5" id="cellE" class="label cell">E</text>
	</g>

	<g id="gWO">
		<path id="path2067" d="M626.1475,381.7582L653.9444,381.7582L654.2256,381.4769C654.3506,381.3207 654.4912,381.3207 654.6475,381.4769C655.8662,382.4145 657.0225,383.3363 658.1163,384.2426C658.6787,384.7113 658.6162,385.1801 657.9288,385.6488L657.2256,386.1644C657.0069,389.9457 656.5694,393.1801 655.9131,395.8676C655.2881,398.5238 653.8819,401.4144 651.6944,404.5394C649.5069,407.6644 646.9444,410.1176 644.0069,411.8988C641.1006,413.6801 637.2881,415.2425 632.5694,416.5863C632.1631,415.1175 631.5069,413.6644 630.6006,412.2269L630.6006,411.7113C634.4756,411.1801 637.8194,410.2269 640.6319,408.8519C643.4756,407.4769 645.7256,405.6176 647.3819,403.2738C649.0694,400.8988 650.2569,398.6176 650.9444,396.4301L627.835,396.4301L627.835,392.4457L651.8819,392.4457C652.2256,390.4144 652.4287,388.1801 652.4913,385.7426L626.1475,385.7426L626.1475,381.7582" />
		<path id="path90618" d="M626.3464,378.4365L638.1087,378.4365" class="stroke" />
		<text x="625.3436" y="376.4349" class="number">1</text>
		<path id="path91539" d="M624.7005,389.6599L638.3909,389.7335" class="stroke" />
		<text x="618.572" y="392.3334" class="number">2</text>
		<path id="path92460" d="M658.1876,400.6602C657.725,404.373 656.4443,406.4792 647.4895,413.5858" class="stroke" />
		<text x="659.7281" y="399.3334" class="number">3</text>
		<text x="621.0" y="442.5" id="cellWO" class="label cell">WO</text>
	</g>
	<g id="gRO">
		<path id="path2079" d="M560.7598,384.867L560.7598,414.6483L565.291,414.6483L565.291,412.2108L589.1035,412.2108L589.1035,414.6483L593.666,414.6483L593.666,384.867L560.7598,384.867z M565.291,389.1483L589.1035,389.1483L589.1035,407.9295L565.291,407.9295L565.291,389.1483z " />
		<path id="path93377" d="M556.099,389.9543L555.9518,405.4112" class="stroke" />
		<text x="549.4553" y="394.8359" class="number">1</text>
		<path id="path94298" d="M582.0076,381.7106L598.4949,381.8579L598.3477,393.0457" class="stroke" />
		<text x="583.4604" y="379.8207" class="number">2</text>
		<path id="path95219" d="M567.5812,415.2741L582.8909,415.4213" class="stroke" />
		<text x="567.7091" y="423.0999" class="number">3</text>
		<text x="562.0" y="442.5" id="cellRO" class="label cell">RO</text>
	</g>
	<g id="gYO">
		<path id="path2095" d="M527.6694,416.2603L523.2163,416.2603L523.2163,413.8697L498.6069,413.8697L498.6069,409.8853L523.2163,409.8853L523.2163,398.8697L501.0444,398.8697L501.0444,395.0728L523.2163,395.0728L523.2163,385.7447L498.6069,385.7447L498.6069,381.7603L527.6694,381.7603L527.6694,416.2603" />
		<path id="path96140" d="M518.365,377.8119L531.6887,377.8119L531.6887,388.2211" class="stroke" />
		<text x="518.0525" y="375.4748" class="number">1</text>
		<path id="path97061" d="M499.4949,391.4264L517.4543,391.7208" class="stroke" />
		<path id="path97978" d="M498.0229,406.4416L510.5355,406.4416" class="stroke" />
		<text x="492.8513" y="393.6582" class="number">2</text>
		<text x="491.8208" y="408.8207" class="number">3</text>
		<text x="498.0" y="442.5" id="cellYO" class="label cell">YO</text>
	</g>
	<g id="gMO">
		<text x="433.563" y="377.3485" class="number">1</text>
		<path id="path2103" d="M433.3774,383.8309L433.3774,387.7997L445.0024,387.7997L462.065,387.7997L462.065,383.8309L433.3774,383.8309z M445.0024,387.7997C444.565,387.8935 444.44,388.1435 444.6274,388.5497C444.815,389.0185 444.9087,389.581 444.9087,390.2372L444.9087,396.2059L429.9087,396.2059L429.9087,400.1747L444.9087,400.1747L444.9087,407.5497C444.9087,412.6434 447.4087,415.1747 452.4087,415.1747L465.315,415.1747L465.9712,410.9247L452.0337,410.9247C450.2524,410.9247 449.3775,409.7372 449.3774,407.3934L449.3774,400.1747L468.44,400.1747L468.44,396.2059L449.3774,396.2059L449.3774,389.7684L449.94,388.8934C450.2212,388.5185 450.1899,388.2685 449.8462,388.1747L445.0024,387.7997z " />
		<path id="path98903" d="M434.2917,380.102L453.6528,380.102" class="stroke" />
		<path id="path99824" d="M431.169,392.593L441.7864,392.593" class="stroke" />
		<text x="425.4327" y="393.8664" class="number">2</text>
		<path id="path100745" d="M441.2716,407.6193C441.1612,411.6215 441.0784,415.3753 442.2422,416.9785C443.4061,418.5817 448.54,418.3287 453.1218,418.2919" class="stroke" />
		<text x="434.5596" y="415.9477" class="number">3</text>
		<text x="432.0" y="442.5" id="cellMO" class="label cell">MO</text>
	</g>
	<g id="gHO">
		<path id="path2121" d="M382.1787,379.6159C381.9267,379.6862 381.8506,379.944 381.8974,380.3659C382.085,380.7409 382.1786,381.4597 382.1787,382.5221L382.1787,388.8971L365.0537,388.8971L365.0537,392.8659L382.1787,392.8659L382.1787,412.2721C382.1786,412.8034 382.0849,413.2096 381.9287,413.4596C381.7724,413.7096 381.4286,413.7096 380.8662,413.4909C380.3349,413.2721 379.5224,412.8971 378.4287,412.3659L378.1474,412.4596C377.9912,413.9596 377.71,415.4596 377.335,416.9284C379.1787,417.4596 380.7725,417.8346 382.085,418.0534C383.4287,418.3034 384.4912,418.0534 385.2724,417.3034C386.085,416.5846 386.5225,415.8346 386.585,415.0846C386.6474,414.3346 386.6474,413.3346 386.6162,412.0534L386.6162,392.8659L404.335,392.8659L404.335,388.8971L386.6162,388.8971L386.6162,381.5221L387.085,380.4596C387.2724,380.1472 387.21,379.8972 386.8974,379.7409L382.4912,379.6159C382.374,379.6003 382.2627,379.5924 382.1787,379.6159z M395.0537,397.3659L392.0224,400.1784C395.0537,403.6784 398.5536,407.7096 402.5224,412.2409C404.085,410.6159 405.3974,409.4284 406.4912,408.6784L406.4912,408.4284C402.1162,404.8347 398.3037,401.1471 395.0537,397.3659z M373.0537,398.7721C372.8975,398.819 372.7881,398.9753 372.71,399.2096C372.6787,399.5222 372.0849,400.8346 370.9287,403.1784C369.8037,405.4909 367.5849,408.0221 364.3037,410.7721L364.3037,411.3034C365.7099,412.2096 366.8974,413.2721 367.8662,414.5221C371.5849,410.2409 374.5537,406.0221 376.7412,401.8346L377.6162,401.3034C378.1162,400.9597 378.0849,400.6784 377.4912,400.4596L373.6474,398.9284C373.4131,398.7878 373.2099,398.7253 373.0537,398.7721z " />
		<path id="path101666" d="M365.4695,385.8756L377.1272,386.0228" class="stroke" />
		<text x="364.1875" y="383.097" class="number">1</text>
		<path id="path102587" d="M390.6714,376.6103L390.5674,386.0827" class="stroke" />
		<text x="393.6455" y="382.1602" class="number">2</text>
		<path id="path103508" d="M370.5355,397.3883L362.9543,406.8096" class="stroke" />
		<path id="path104425" d="M400.0508,397.6091L408.0,405.4112" class="stroke" />
		<text x="358.9616" y="400.1732" class="number">3</text>
		<text x="405.553" y="399.9524" class="number">4</text>
		<text x="368.0" y="442.5" id="cellHO" class="label cell">HO</text>
	</g>
	<g id="gNO">
		<path id="path2133" d="M331.495,380.0638C331.4638,379.5326 331.745,379.3451 332.3388,379.5013L337.4482,380.5794C337.9169,380.7982 337.9481,381.1107 337.5419,381.5169L336.745,382.3138C336.245,385.2826 335.0106,389.0326 333.0419,393.5638C331.1044,398.0638 328.4325,402.1107 325.0263,405.7044C321.62,409.2982 316.1669,412.7357 308.6669,416.0169C308.1044,414.3294 307.245,412.7826 306.0888,411.3763L306.0888,411.0013C311.995,409.6576 316.7763,407.2826 320.4325,403.8763C324.0888,400.4701 326.8075,396.5951 328.5888,392.2513C330.4013,387.8764 331.4013,384.8451 331.5888,383.1576C331.7763,381.4701 331.745,380.4389 331.495,380.0638" />
		<path id="path105350" d="M327.3913,380.3459C325.901,388.7912 321.4849,393.0956 318.1912,396.7567" class="stroke" />
		<text x="318.2119" y="387.0525" class="number">1</text>
		<text x="305.0" y="442.5" id="cellNO" class="label cell">NO</text>
	</g>
	<g id="gTO">
		<path id="path2147" d="M254.7015,388.6513C260.639,391.3075 266.0609,394.4325 270.9672,398.0263L270.9672,398.3544C270.0296,399.6044 269.1078,400.9794 268.2015,402.4794C262.9515,397.7606 257.9671,394.5106 253.2484,392.7294L253.2484,407.9169C253.2484,411.2919 253.3109,413.9012 253.4359,415.745L248.514,415.745C248.7015,412.5575 248.7953,407.7919 248.7953,401.4481L248.7953,378.1513C248.7953,377.495 248.7015,376.9325 248.514,376.4638C248.3265,376.0575 248.4515,375.8075 248.889,375.7138L253.6234,375.995C253.9984,376.1513 254.0296,376.4169 253.7172,376.7919L253.2484,377.6356L253.2484,391.2763L254.7015,388.6513" />
		<path id="path106271" d="M244.9435,377.3956L244.8394,393.1134" class="stroke" />
		<text x="237.5737" y="384.6584" class="number">1</text>
		<path id="path107192" d="M258.6837,386.8679L270.1338,393.3216" class="stroke" />
		<text x="262.0353" y="385.283" class="number">2</text>
		<text x="243.0" y="442.5" id="cellTO" class="label cell">TO</text>
	</g>
	<g id="gSO">
		<path id="path2165" d="M205.0152,382.3773C204.6637,382.3891 204.4606,382.6039 204.3902,383.0023C204.6402,383.3774 204.6089,384.8149 204.2652,387.3148C203.9215,389.8149 203.0777,392.9711 201.734,396.8148C200.3902,400.6274 197.8902,404.0649 194.234,407.0961C190.6089,410.0961 186.359,412.1586 181.484,413.2836L181.484,413.6586C182.484,414.9398 183.2028,416.3461 183.6402,417.9086C190.109,415.3773 195.0777,412.4711 198.5778,409.1586C202.0778,405.8461 204.6089,402.0648 206.1402,397.8461C207.7028,393.6274 208.7965,389.2836 209.4528,384.8148L210.1715,384.0336C210.5464,383.6586 210.5152,383.3774 210.0778,383.2211L205.4215,382.4398C205.2731,382.4008 205.1324,382.3734 205.0152,382.3773z M180.6402,384.0336L177.1715,386.6898C180.0152,389.8461 182.2965,393.1586 184.0465,396.6273C185.609,395.3461 187.0152,394.3461 188.234,393.6273C185.9527,390.2836 183.4216,387.0961 180.6402,384.0336z " />
		<path id="path108113" d="M183.1459,381.4552L190.6406,390.9275" class="stroke" />
		<path id="path109030" d="M213.8531,384.682C214.2694,391.9684 208.7265,401.5709 206.3584,406.1249" class="stroke" />
		<text x="185.873" y="382.0561" class="number">1</text>
		<text x="214.8106" y="396.9413" class="number">2</text>
		<text x="179.0" y="442.5" id="cellSO" class="label cell">SO</text>
	</g>
	<g id="gKO">
		<path id="path2179" d="M114.514,384.2416L145.7796,384.2416L145.7796,412.7884L141.2327,412.7884L141.2327,410.8197L114.514,410.8197L114.514,406.5541L141.2327,406.5541L141.2327,388.5072L114.514,388.5072L114.514,384.2416" />
		<path id="path109955" d="M133.9619,380.6802L151.0381,380.2386L151.1853,391.868" class="stroke" />
		<text x="134.274" y="377.9343" class="number">1</text>
		<path id="path110876" d="M113.0584,414.2437L127.4848,414.2437" class="stroke" />
		<text x="112.7192" y="421.9666" class="number">2</text>
		<text x="113.0" y="442.5" id="cellKO" class="label cell">KO</text>
	</g>
	<g id="gO">
		<path id="path2189" d="M69.1295,376.4848L73.5358,376.6723C73.9107,376.7973 73.9732,377.0473 73.7233,377.4223L73.2076,378.266L73.2076,386.0473L87.4576,386.0473L87.4576,390.2191L73.2076,390.2191L73.2076,410.0473C73.2389,411.3285 73.2232,412.4067 73.1608,413.2816C73.0982,414.1566 72.692,414.9223 71.942,415.5785C71.2232,416.266 70.0201,416.5004 68.3326,416.2816C66.6764,416.0941 64.6451,415.6723 62.2389,415.016C62.7389,413.6098 63.1295,412.1567 63.4108,410.6566L63.692,410.4691C65.1607,411.1567 66.2857,411.5473 67.067,411.641C67.8482,411.7348 68.317,411.6723 68.4733,411.4535C68.6607,411.2035 68.7545,410.7817 68.7545,410.1879L68.7545,393.0785C66.7545,396.2348 64.1764,399.4223 61.0201,402.641C57.8951,405.8598 53.8951,409.3754 49.0201,413.1879C48.1139,411.5317 47.1139,410.2348 46.0201,409.2973L46.0201,408.9223C50.3326,406.4848 54.2545,403.4379 57.7858,399.7816C61.317,396.1254 63.7389,392.9379 65.0514,390.2191L46.7701,390.2191L46.7701,386.0473L68.7545,386.0473L68.7545,379.391C68.7545,378.3286 68.6607,377.6098 68.4733,377.2348C68.3482,376.6723 68.567,376.4223 69.1295,376.4848" />
		<path id="path111797" d="M47.033,383.0355L62.4899,382.8883" class="stroke" />
		<path id="path112714" d="M77.3252,373.6395L77.178,383.7968" class="stroke" />
		<path id="path113631" d="M59.8401,392.4568C57.4532,395.6397 50.5976,401.2767 47.3779,403.7309" class="stroke" />
		<text x="46.0371" y="381.057" class="number">1</text>
		<text x="79.5546" y="376.8934" class="number">2</text>
		<text x="46.4534" y="397.7118" class="number">3</text>
		<text x="57.0" y="442.5" id="cellO" class="label cell">O</text>
	</g>

	<text x="119" y="34.5" id="colN" class="label col">k</text>
	<text x="187" y="34.5" id="colw" class="label col">s</text>
	<text x="251" y="34.5" id="colr" class="label col">t</text>
	<text x="313" y="34.5" id="coly" class="label col">n</text>
	<text x="379" y="34.5" id="colm" class="label col">h</text>
	<text x="443" y="34.5" id="colh" class="label col">m</text>
	<text x="509" y="34.5" id="coln" class="label col">y</text>
	<text x="573" y="34.5" id="colt" class="label col">r</text>
	<text x="635" y="34.5" id="cols" class="label col">w</text>
	<text x="697" y="34.5" id="colk" class="label col">n</text>

	<text x="0" y="90.5" id="rowa" class="label row">a</text>
	<text x="0" y="170.5" id="rowi" class="label row">i</text>
	<text x="0" y="252.5" id="rowu" class="label row">u</text>
	<text x="0" y="332.5" id="rowe" class="label row">e</text>
	<text x="0" y="410.5" id="rowo" class="label row">o</text>
</svg>
